<?xml version="1.0" encoding="UTF-8" standalone="no"?>
<svg
   viewBox="0 0 108.0 108.0"
   width="108.0"
   height="108.0"
   version="1.1"
   id="svg6"
   sodipodi:docname="ic_launcher_foreground.svg"
   inkscape:version="1.4.3 (0d15f75, 2025-12-25)"
   xmlns:inkscape="http://www.inkscape.org/namespaces/inkscape"
   xmlns:sodipodi="http://sodipodi.sourceforge.net/DTD/sodipodi-0.dtd"
   xmlns="http://www.w3.org/2000/svg"
   xmlns:svg="http://www.w3.org/2000/svg">
  <defs
     id="defs6" />
  <sodipodi:namedview
     id="namedview6"
     pagecolor="#ffffff"
     bordercolor="#000000"
     borderopacity="0.25"
     inkscape:showpageshadow="2"
     inkscape:pageopacity="0.0"
     inkscape:pagecheckerboard="0"
     inkscape:deskcolor="#d1d1d1"
     showgrid="true"
     inkscape:zoom="11.313709"
     inkscape:cx="53.784307"
     inkscape:cy="76.5885"
     inkscape:window-width="2560"
     inkscape:window-height="1571"
     inkscape:window-x="-9"
     inkscape:window-y="-9"
     inkscape:window-maximized="1"
     inkscape:current-layer="svg6">
    <inkscape:grid
       id="grid6"
       units="px"
       originx="0"
       originy="0"
       spacingx="1"
       spacingy="1"
       empcolor="#0099e5"
       empopacity="0.30196078"
       color="#0099e5"
       opacity="0.14901961"
       empspacing="5"
       enabled="true"
       visible="true" />
  </sodipodi:namedview>
  <!-- Dark background for visibility (remove before converting back) -->
  <path
     id="rect41"
     style="display:inline;fill:#ffffff;fill-rule:evenodd;stroke-width:0.98238"
     inkscape:label="X_alt"
     d="m 83.653141,69.084002 -3.465549,-6.332765 -3.465549,-6.332766 -3.733605,8.215124 -8.931929,-1.284025 3.465549,6.332765 3.465549,6.332766 3.733605,-8.215124 z" />
  <path
     d="m 66.218292,45.011367 c 3.986928,0 7.218974,3.232052 7.218974,7.218977 0,3.986988 -3.232046,7.21904 -7.218974,7.21904 -3.98699,0 -7.218753,-3.232052 -7.218753,-7.21904 0,-3.986925 3.231763,-7.218977 7.218753,-7.218977 z"
     fill="#ffffff"
     id="path3"
     style="display:inline;stroke-width:1.80464"
     inkscape:transform-center-x="-1.5858769"
     inkscape:transform-center-y="-0.39644579"
     sodipodi:nodetypes="sssss"
     inkscape:label="O" />
  <path
     d="m 48,34 14.901663,6.75e-4 -7.136639,14.180549 z"
     fill="#ffffff"
     id="path21"
     style="display:inline;stroke-width:1.79053"
     sodipodi:nodetypes="cccc"
     inkscape:label="V" />
  <path
     d="M 46,34 23,76 h 46 z m 0,23 -10,19 h 20 z"
     fill="#ffffff"
     fill-rule="evenodd"
     id="path1"
     inkscape:label="A"
     style="display:inline" />
  <g
     id="g28"
     inkscape:label="Mask"
     style="display:inline">
    <path
       id="path41"
       style="display:inline;fill:#c58181;fill-opacity:1;fill-rule:evenodd;stroke-width:0.491191"
       inkscape:label="X_alt"
       d="m 81.920365,65.917619 -1.732773,-3.166382 -1.732775,-3.166382 -2.489069,5.476748 z m -10.176462,1.454349 -5.954618,-0.856015 1.732773,3.166382 1.732775,3.166382 z" />
    <path
       d="m 66.215048,48.618116 c 1.993502,0 3.609555,1.616026 3.609555,3.609489 0,1.993494 -1.616053,3.609519 -3.609555,3.609519 -1.993533,0 -3.609445,-1.616025 -3.609445,-3.609519 0,-1.993463 1.615912,-3.609489 3.609445,-3.609489 z"
       fill="#ffffff"
       id="path24"
       style="display:inline;fill:#c58181;fill-opacity:1;stroke-width:0.902329"
       inkscape:transform-center-x="-0.79295364"
       inkscape:transform-center-y="-0.19822315"
       sodipodi:nodetypes="sssss"
       inkscape:label="O" />
    <path
       d="m 51.87375,34 7.451,3.37e-4 -3.5684,7.090275 z"
       fill="#ffffff"
       id="path22"
       style="display:inline;fill:#c58181;fill-opacity:1;stroke-width:0.895275"
       sodipodi:nodetypes="cccc"
       inkscape:label="V" />
    <path
       id="path20"
       style="display:inline;fill:#c68282;fill-opacity:1"
       inkscape:label="A"
       d="m 46,34 23,42 h 1 L 47,34 h -0.5 z m 0,23 -10,19 h 1 l 9.5,-18.050781 z" />
  </g>
</svg>
